<?xml version="1.0" encoding="UTF-8" standalone="no"?>
<!-- Created with Inkscape (http://www.inkscape.org/) -->

<svg
   width="200.00018mm"
   height="200.0002mm"
   viewBox="0 0 200.00018 200.0002"
   version="1.1"
   id="svg1"
   sodipodi:docname="g1.svg"
   inkscape:export-filename="g1.png"
   inkscape:export-xdpi="3.3019969"
   inkscape:export-ydpi="3.3019969"
   inkscape:version="1.3 (0e150ed6c4, 2023-07-21)"
   xmlns:inkscape="http://www.inkscape.org/namespaces/inkscape"
   xmlns:sodipodi="http://sodipodi.sourceforge.net/DTD/sodipodi-0.dtd"
   xmlns:xlink="http://www.w3.org/1999/xlink"
   xmlns="http://www.w3.org/2000/svg"
   xmlns:svg="http://www.w3.org/2000/svg">
  <sodipodi:namedview
     id="namedview1"
     pagecolor="#ffffff"
     bordercolor="#000000"
     borderopacity="0.25"
     inkscape:showpageshadow="2"
     inkscape:pageopacity="0.0"
     inkscape:pagecheckerboard="0"
     inkscape:deskcolor="#d1d1d1"
     inkscape:document-units="mm"
     inkscape:zoom="2.3719872"
     inkscape:cx="377.74234"
     inkscape:cy="377.95313"
     inkscape:window-width="3840"
     inkscape:window-height="2054"
     inkscape:window-x="-11"
     inkscape:window-y="-11"
     inkscape:window-maximized="1"
     inkscape:current-layer="svg1" />
  <defs
     id="defs1">
    <linearGradient
       id="linearGradient3">
      <stop
         style="stop-color:#fc8011;stop-opacity:1;"
         offset="0"
         id="stop3" />
      <stop
         style="stop-color:#ec1364;stop-opacity:1;"
         offset="1"
         id="stop4" />
    </linearGradient>
    <linearGradient
       xlink:href="#linearGradient3"
       id="linearGradient4"
       x1="4.3910904"
       y1="127.91583"
       x2="204.39108"
       y2="127.91583"
       gradientUnits="userSpaceOnUse" />
  </defs>
  <g
     id="layer1"
     transform="translate(-4.3909465,-27.915609)">
    <g
       id="g1">
      <path
         id="path5"
         style="fill:url(#linearGradient4);fill-opacity:1;stroke-width:0.264583"
         d="M 104.39104,27.915609 A 100,100 0 0 0 4.3909465,127.91571 100,100 0 0 0 104.39104,227.9158 100,100 0 0 0 204.39114,127.91571 100,100 0 0 0 104.39104,27.915609 Z m 0,12.500012 a 87.5,87.5 0 0 1 4.29328,0.10542 87.5,87.5 0 0 1 4.28346,0.31626 87.5,87.5 0 0 1 4.26227,0.525549 87.5,87.5 0 0 1 4.23127,0.734322 87.5,87.5 0 0 1 4.19044,0.941028 87.5,87.5 0 0 1 4.13928,1.14515 87.5,87.5 0 0 1 4.07779,1.347204 87.5,87.5 0 0 1 4.00699,1.545642 87.5,87.5 0 0 1 3.92638,1.740463 87.5,87.5 0 0 1 3.83594,1.931148 87.5,87.5 0 0 1 3.73672,2.116666 87.5,87.5 0 0 1 3.62872,2.297535 87.5,87.5 0 0 1 3.51141,2.473234 87.5,87.5 0 0 1 3.38533,2.642216 87.5,87.5 0 0 1 3.252,2.804996 87.5,87.5 0 0 1 3.1104,2.961577 87.5,87.5 0 0 1 2.96158,3.110404 87.5,87.5 0 0 1 2.80499,3.251998 87.5,87.5 0 0 1 2.64222,3.38584 87.5,87.5 0 0 1 2.47323,3.511414 87.5,87.5 0 0 1 2.29754,3.628202 87.5,87.5 0 0 1 2.11666,3.736723 87.5,87.5 0 0 1 1.93115,3.835941 87.5,87.5 0 0 1 1.74046,3.926376 87.5,87.5 0 0 1 1.54565,4.00699 87.5,87.5 0 0 1 1.3472,4.077791 87.5,87.5 0 0 1 1.14567,4.13928 87.5,87.5 0 0 1 0.94051,4.19044 87.5,87.5 0 0 1 0.73432,4.23127 87.5,87.5 0 0 1 0.52607,4.26279 87.5,87.5 0 0 1 0.31574,4.28294 87.5,87.5 0 0 1 0.10542,4.29328 87.5,87.5 0 0 1 -0.8909,12.45247 87.5,87.5 0 0 1 -2.65359,12.19925 87.5,87.5 0 0 1 -4.36252,11.69696 87.5,87.5 0 0 1 -5.9831,10.95747 87.5,87.5 0 0 1 -7.48171,9.99422 87.5,87.5 0 0 1 -8.82789,8.82789 87.5,87.5 0 0 1 -9.99422,7.48171 87.5,87.5 0 0 1 -10.95747,5.9831 87.5,87.5 0 0 1 -11.69696,4.36253 87.5,87.5 0 0 1 -12.19926,2.6541 87.5,87.5 0 0 1 -12.45247,0.89038 87.5,87.5 0 0 1 -12.452466,-0.89038 87.5,87.5 0 0 1 -12.199255,-2.6541 87.5,87.5 0 0 1 -11.696961,-4.36253 87.5,87.5 0 0 1 -10.95747,-5.9831 87.5,87.5 0 0 1 -9.994222,-7.48171 87.5,87.5 0 0 1 -8.827885,-8.82789 87.5,87.5 0 0 1 -7.481197,-9.99422 87.5,87.5 0 0 1 -5.983098,-10.95747 87.5,87.5 0 0 1 -4.363041,-11.69696 87.5,87.5 0 0 1 -2.653585,-12.19925 87.5,87.5 0 0 1 -0.890901,-12.45247 87.5,87.5 0 0 1 0.890901,-12.45247 87.5,87.5 0 0 1 2.653585,-12.19926 87.5,87.5 0 0 1 4.363041,-11.696959 87.5,87.5 0 0 1 5.983098,-10.957471 87.5,87.5 0 0 1 7.481197,-9.994222 87.5,87.5 0 0 1 8.827885,-8.827368 87.5,87.5 0 0 1 9.994222,-7.481714 87.5,87.5 0 0 1 10.95747,-5.983097 87.5,87.5 0 0 1 11.696961,-4.363042 87.5,87.5 0 0 1 12.199255,-2.653584 87.5,87.5 0 0 1 12.452466,-0.890902 z" />
      <text
         xml:space="preserve"
         style="font-style:normal;font-variant:normal;font-weight:800;font-stretch:normal;font-size:123.473px;font-family:'Work Sans';-inkscape-font-specification:'Work Sans, Ultra-Bold';font-variant-ligatures:normal;font-variant-caps:normal;font-variant-numeric:normal;font-variant-east-asian:normal;fill:#000000;stroke-width:0.264583"
         x="60.126125"
         y="168.66179"
         id="text1"><tspan
           id="tspan1"
           style="font-style:normal;font-variant:normal;font-weight:800;font-stretch:normal;font-size:123.473px;font-family:'Work Sans';-inkscape-font-specification:'Work Sans, Ultra-Bold';font-variant-ligatures:normal;font-variant-caps:normal;font-variant-numeric:normal;font-variant-east-asian:normal;stroke-width:0.264583"
           x="60.126125"
           y="168.66179">P</tspan></text>
    </g>
  </g>
</svg>
